<svg version="1.1" xmlns="http://www.w3.org/2000/svg" viewBox="0 0 1072 711" width="1072" height="711">
  <!-- svg-source:excalidraw -->
  
  <defs>
    <style class="style-fonts">
      @font-face {
        font-family: "Virgil";
        src: url("https://excalidraw.com/Virgil.woff2");
      }
      @font-face {
        font-family: "Cascadia";
        src: url("https://excalidraw.com/Cascadia.woff2");
      }
      @font-face {
        font-family: "Assistant";
        src: url("https://excalidraw.com/Assistant-Regular.woff2");
      }
    </style>
    
  </defs>
  <rect x="0" y="0" width="1072" height="711" fill="#ffffff"></rect><g stroke-linecap="round" transform="translate(398.00000000000045 309) rotate(0 129.5 53)"><path d="M26.5 0 C74.54 0, 122.58 0, 232.5 0 M26.5 0 C84.38 0, 142.26 0, 232.5 0 M232.5 0 C250.17 0, 259 8.83, 259 26.5 M232.5 0 C250.17 0, 259 8.83, 259 26.5 M259 26.5 C259 39.45, 259 52.41, 259 79.5 M259 26.5 C259 46.57, 259 66.63, 259 79.5 M259 79.5 C259 97.17, 250.17 106, 232.5 106 M259 79.5 C259 97.17, 250.17 106, 232.5 106 M232.5 106 C171.67 106, 110.84 106, 26.5 106 M232.5 106 C178.6 106, 124.69 106, 26.5 106 M26.5 106 C8.83 106, 0 97.17, 0 79.5 M26.5 106 C8.83 106, 0 97.17, 0 79.5 M0 79.5 C0 65.31, 0 51.13, 0 26.5 M0 79.5 C0 58.56, 0 37.61, 0 26.5 M0 26.5 C0 8.83, 8.83 0, 26.5 0 M0 26.5 C0 8.83, 8.83 0, 26.5 0" stroke="#1e1e1e" stroke-width="2" fill="none"></path></g><g transform="translate(427.09999847412155 327) rotate(0 100.4000015258789 35)"><text x="100.4000015258789" y="0" font-family="Virgil, Segoe UI Emoji" font-size="28px" fill="#1e1e1e" text-anchor="middle" style="white-space: pre;" direction="ltr" dominant-baseline="text-before-edge">Nettoyage et </text><text x="100.4000015258789" y="35" font-family="Virgil, Segoe UI Emoji" font-size="28px" fill="#1e1e1e" text-anchor="middle" style="white-space: pre;" direction="ltr" dominant-baseline="text-before-edge">ajouts</text></g><g stroke-linecap="round" transform="translate(809 48.5) rotate(0 92.5 53.5)"><path d="M0 0 C66.39 0, 132.79 0, 185 0 M0 0 C40.72 0, 81.44 0, 185 0 M185 0 C185 32.48, 185 64.96, 185 107 M185 0 C185 32.3, 185 64.6, 185 107 M185 107 C143.49 107, 101.98 107, 0 107 M185 107 C142.02 107, 99.03 107, 0 107 M0 107 C0 71.07, 0 35.13, 0 0 M0 107 C0 82.69, 0 58.39, 0 0" stroke="#1e1e1e" stroke-width="2" fill="none"></path></g><g transform="translate(852.716667175293 67) rotate(0 48.78333282470703 35)"><text x="48.78333282470703" y="0" font-family="Virgil, Segoe UI Emoji" font-size="28px" fill="#1e1e1e" text-anchor="middle" style="white-space: pre;" direction="ltr" dominant-baseline="text-before-edge">Fichier </text><text x="48.78333282470703" y="35" font-family="Virgil, Segoe UI Emoji" font-size="28px" fill="#1e1e1e" text-anchor="middle" style="white-space: pre;" direction="ltr" dominant-baseline="text-before-edge">MAJIC</text></g><g transform="translate(816.5 10) rotate(0 110.68333435058594 17.5)"><text x="0" y="0" font-family="Virgil, Segoe UI Emoji" font-size="28px" fill="#1e1e1e" text-anchor="start" style="white-space: pre;" direction="ltr" dominant-baseline="text-before-edge">Format Parquet</text></g><g stroke-linecap="round"><g transform="translate(274.5 366.41443989817526) rotate(0 57.500000000000114 0.25841197513705083)"><path d="M0 0 C45.47 0.2, 90.94 0.41, 115 0.52 M0 0 C35.84 0.16, 71.68 0.32, 115 0.52" stroke="#1e1e1e" stroke-width="2" fill="none"></path></g><g transform="translate(274.5 366.41443989817526) rotate(0 57.500000000000114 0.25841197513705083)"><path d="M115 0.52 L101.38 6.79 L101.43 -5.88 L115 0.52" stroke="none" stroke-width="0" fill="#1e1e1e" fill-rule="evenodd"></path><path d="M115 0.52 C109.61 3, 104.23 5.48, 101.38 6.79 M115 0.52 C110.75 2.47, 106.51 4.43, 101.38 6.79 M101.38 6.79 C101.4 2.08, 101.42 -2.64, 101.43 -5.88 M101.38 6.79 C101.39 3.5, 101.41 0.2, 101.43 -5.88 M101.43 -5.88 C106.82 -3.34, 112.2 -0.8, 115 0.52 M101.43 -5.88 C105.24 -4.09, 109.05 -2.29, 115 0.52 M115 0.52 C115 0.52, 115 0.52, 115 0.52 M115 0.52 C115 0.52, 115 0.52, 115 0.52" stroke="#1e1e1e" stroke-width="2" fill="none"></path></g></g><mask></mask><g stroke-linecap="round" transform="translate(765 309) rotate(0 129.5 53)"><path d="M26.5 0 C86.29 0, 146.09 0, 232.5 0 M26.5 0 C75.29 0, 124.08 0, 232.5 0 M232.5 0 C250.17 0, 259 8.83, 259 26.5 M232.5 0 C250.17 0, 259 8.83, 259 26.5 M259 26.5 C259 38.02, 259 49.55, 259 79.5 M259 26.5 C259 43.39, 259 60.29, 259 79.5 M259 79.5 C259 97.17, 250.17 106, 232.5 106 M259 79.5 C259 97.17, 250.17 106, 232.5 106 M232.5 106 C177.89 106, 123.29 106, 26.5 106 M232.5 106 C167.07 106, 101.63 106, 26.5 106 M26.5 106 C8.83 106, 0 97.17, 0 79.5 M26.5 106 C8.83 106, 0 97.17, 0 79.5 M0 79.5 C0 66.73, 0 53.96, 0 26.5 M0 79.5 C0 63.23, 0 46.96, 0 26.5 M0 26.5 C0 8.83, 8.83 0, 26.5 0 M0 26.5 C0 8.83, 8.83 0, 26.5 0" stroke="#1e1e1e" stroke-width="2" fill="none"></path></g><g transform="translate(775.9916687011719 327) rotate(0 118.50833129882812 35)"><text x="118.50833129882812" y="0" font-family="Virgil, Segoe UI Emoji" font-size="28px" fill="#1e1e1e" text-anchor="middle" style="white-space: pre;" direction="ltr" dominant-baseline="text-before-edge">Moteur de règle </text><text x="118.50833129882812" y="35" font-family="Virgil, Segoe UI Emoji" font-size="28px" fill="#1e1e1e" text-anchor="middle" style="white-space: pre;" direction="ltr" dominant-baseline="text-before-edge">de décision</text></g><g stroke-linecap="round"><g transform="translate(665.5 366) rotate(0 47 0)"><path d="M0 0 C19.44 0, 38.89 0, 94 0 M0 0 C21.03 0, 42.07 0, 94 0" stroke="#1e1e1e" stroke-width="2" fill="none"></path></g><g transform="translate(665.5 366) rotate(0 47 0)"><path d="M94 0 L80.41 6.34 L80.41 -6.34 L94 0" stroke="none" stroke-width="0" fill="#1e1e1e" fill-rule="evenodd"></path><path d="M94 0 C91.19 1.31, 88.38 2.62, 80.41 6.34 M94 0 C90.96 1.42, 87.92 2.84, 80.41 6.34 M80.41 6.34 C80.41 3.14, 80.41 -0.06, 80.41 -6.34 M80.41 6.34 C80.41 1.93, 80.41 -2.47, 80.41 -6.34 M80.41 -6.34 C83.64 -4.83, 86.87 -3.32, 94 0 M80.41 -6.34 C85.07 -4.16, 89.74 -1.99, 94 0 M94 0 C94 0, 94 0, 94 0 M94 0 C94 0, 94 0, 94 0" stroke="#1e1e1e" stroke-width="2" fill="none"></path></g></g><mask></mask><g stroke-linecap="round"><g transform="translate(895.5 163) rotate(0 0 66.5)"><path d="M0 0 C0 33.96, 0 67.92, 0 133 M0 0 C0 40.99, 0 81.97, 0 133" stroke="#1e1e1e" stroke-width="2" fill="none"></path></g><g transform="translate(895.5 163) rotate(0 0 66.5)"><path d="M0 133 L-6.34 119.41 L6.34 119.41 L0 133" stroke="none" stroke-width="0" fill="#1e1e1e" fill-rule="evenodd"></path><path d="M0 133 C-1.62 129.53, -3.24 126.06, -6.34 119.41 M0 133 C-1.95 128.81, -3.91 124.62, -6.34 119.41 M-6.34 119.41 C-2.6 119.41, 1.15 119.41, 6.34 119.41 M-6.34 119.41 C-2.97 119.41, 0.39 119.41, 6.34 119.41 M6.34 119.41 C4.55 123.25, 2.76 127.09, 0 133 M6.34 119.41 C3.9 124.64, 1.46 129.87, 0 133 M0 133 C0 133, 0 133, 0 133 M0 133 C0 133, 0 133, 0 133" stroke="#1e1e1e" stroke-width="2" fill="none"></path></g></g><mask></mask><g stroke-linecap="round"><g transform="translate(897.3438921565212 422) rotate(0 0.10477828954958568 57.5)"><path d="M0 0 C0.07 36.4, 0.13 72.8, 0.21 115 M0 0 C0.06 31.13, 0.11 62.26, 0.21 115" stroke="#1e1e1e" stroke-width="2" fill="none"></path></g><g transform="translate(897.3438921565212 422) rotate(0 0.10477828954958568 57.5)"><path d="M0.21 115 L-6.15 101.42 L6.52 101.39 L0.21 115" stroke="none" stroke-width="0" fill="#1e1e1e" fill-rule="evenodd"></path><path d="M0.21 115 C-1.8 110.7, -3.82 106.4, -6.15 101.42 M0.21 115 C-1.51 111.32, -3.24 107.65, -6.15 101.42 M-6.15 101.42 C-3.54 101.41, -0.92 101.41, 6.52 101.39 M-6.15 101.42 C-2.6 101.41, 0.96 101.4, 6.52 101.39 M6.52 101.39 C4.3 106.19, 2.08 110.98, 0.21 115 M6.52 101.39 C4.62 105.51, 2.71 109.62, 0.21 115 M0.21 115 C0.21 115, 0.21 115, 0.21 115 M0.21 115 C0.21 115, 0.21 115, 0.21 115" stroke="#1e1e1e" stroke-width="2" fill="none"></path></g></g><mask></mask><g stroke-linecap="round" transform="translate(331 237.5) rotate(0 365.5 119.5)"><path d="M0 0 C187.7 0, 375.41 0, 731 0 M0 0 C265.31 0, 530.63 0, 731 0 M731 0 C731 54.47, 731 108.94, 731 239 M731 0 C731 67.14, 731 134.29, 731 239 M731 239 C544.74 239, 358.49 239, 0 239 M731 239 C482.4 239, 233.8 239, 0 239 M0 239 C0 159.8, 0 80.61, 0 0 M0 239 C0 154.26, 0 69.52, 0 0" stroke="#1e1e1e" stroke-width="2" fill="none"></path></g><g transform="translate(343.5 190) rotate(0 251.09165954589844 17.5)"><text x="0" y="0" font-family="Virgil, Segoe UI Emoji" font-size="28px" fill="#1e1e1e" text-anchor="start" style="white-space: pre;" direction="ltr" dominant-baseline="text-before-edge">Programme de nettoyage des libellés</text></g><g stroke-linecap="round" transform="translate(779 548.5) rotate(0 128.5 54.5)"><path d="M0 0 C98.49 0, 196.97 0, 257 0 M0 0 C95.78 0, 191.56 0, 257 0 M257 0 C257 23.31, 257 46.63, 257 109 M257 0 C257 27.61, 257 55.23, 257 109 M257 109 C189.16 109, 121.31 109, 0 109 M257 109 C166.03 109, 75.07 109, 0 109 M0 109 C0 66.73, 0 24.47, 0 0 M0 109 C0 85.81, 0 62.62, 0 0" stroke="#1e1e1e" stroke-width="2" fill="none"></path></g><g transform="translate(806.283332824707 568) rotate(0 101.21666717529297 35)"><text x="101.21666717529297" y="0" font-family="Virgil, Segoe UI Emoji" font-size="28px" fill="#1e1e1e" text-anchor="middle" style="white-space: pre;" direction="ltr" dominant-baseline="text-before-edge">Fichier MAJIC </text><text x="101.21666717529297" y="35" font-family="Virgil, Segoe UI Emoji" font-size="28px" fill="#1e1e1e" text-anchor="middle" style="white-space: pre;" direction="ltr" dominant-baseline="text-before-edge">nettoyé</text></g><g transform="translate(787.5 666) rotate(0 104.66666412353516 17.5)"><text x="0" y="0" font-family="Virgil, Segoe UI Emoji" font-size="28px" fill="#1e1e1e" text-anchor="start" style="white-space: pre;" direction="ltr" dominant-baseline="text-before-edge">Format Paquet</text></g><g stroke-linecap="round" transform="translate(10 309.5) rotate(0 128.5 54.5)"><path d="M0 0 C58.04 0, 116.08 0, 257 0 M0 0 C67.68 0, 135.36 0, 257 0 M257 0 C257 32.35, 257 64.71, 257 109 M257 0 C257 32.84, 257 65.69, 257 109 M257 109 C176.05 109, 95.09 109, 0 109 M257 109 C201.05 109, 145.1 109, 0 109 M0 109 C0 68.81, 0 28.62, 0 0 M0 109 C0 84.6, 0 60.21, 0 0" stroke="#1e1e1e" stroke-width="2" fill="none"></path></g><g transform="translate(25.199996948242188 329) rotate(0 113.30000305175781 35)"><text x="113.30000305175781" y="0" font-family="Virgil, Segoe UI Emoji" font-size="28px" fill="#1e1e1e" text-anchor="middle" style="white-space: pre;" direction="ltr" dominant-baseline="text-before-edge">Référentiel des </text><text x="113.30000305175781" y="35" font-family="Virgil, Segoe UI Emoji" font-size="28px" fill="#1e1e1e" text-anchor="middle" style="white-space: pre;" direction="ltr" dominant-baseline="text-before-edge">types MAJIC</text></g><g transform="translate(19.5 435) rotate(0 76.86666870117188 17.5)"><text x="0" y="0" font-family="Virgil, Segoe UI Emoji" font-size="28px" fill="#1e1e1e" text-anchor="start" style="white-space: pre;" direction="ltr" dominant-baseline="text-before-edge">Format csv</text></g></svg>